<svg width="39" height="39" viewBox="0 0 39 39" fill="none" xmlns="http://www.w3.org/2000/svg">
<rect x="4" y="4" width="31" height="31" rx="15.5" fill="#D1FADF"/>
<path d="M24.8332 19.4641V20.0007C24.8325 21.2586 24.4251 22.4826 23.6719 23.4901C22.9188 24.4976 21.8601 25.2347 20.6538 25.5913C19.4475 25.948 18.1582 25.9052 16.9783 25.4692C15.7983 25.0333 14.7909 24.2276 14.1062 23.1724C13.4216 22.1171 13.0964 20.8688 13.1791 19.6136C13.2619 18.3584 13.7482 17.1636 14.5655 16.2074C15.3828 15.2511 16.4873 14.5847 17.7143 14.3075C18.9413 14.0303 20.225 14.1571 21.374 14.6691M24.8332 15.3341L18.9998 21.1732L17.2498 19.4232" stroke="#039855" stroke-width="2" stroke-linecap="round" stroke-linejoin="round"/>
<rect x="4" y="4" width="31" height="31" rx="15.5" stroke="#ECFDF3" stroke-width="8"/>
</svg>
