<?xml version="1.0" encoding="utf-8"?>
<!-- Generator: Adobe Illustrator 25.0.0, SVG Export Plug-In . SVG Version: 6.00 Build 0)  -->
<svg version="1.1" id="Layer_1" xmlns="http://www.w3.org/2000/svg" xmlns:xlink="http://www.w3.org/1999/xlink" x="0px" y="0px"
	 viewBox="0 0 159 38" style="enable-background:new 0 0 159 38;" xml:space="preserve">
<style type="text/css">
	.st0{clip-path:url(#SVGID_2_);}
	.st1{fill:none;stroke:#373435;stroke-width:2;stroke-miterlimit:10;}
	.st2{fill:#FFFFFF;}
	.st3{fill:#373435;}
	.st4{fill:url(#SVGID_3_);}
	.st5{fill:url(#SVGID_4_);}
	.st6{fill:none;}
	.st7{font-family:'MyriadPro-Regular';}
	.st8{font-size:12px;}
	.st9{fill:none;stroke:#FFFFFF;stroke-width:4;stroke-miterlimit:10;}
	.st10{fill:url(#SVGID_5_);}
</style>
<g>
	<defs>
		<rect id="SVGID_1_" x="-13.4" y="41.2" width="159" height="37"/>
	</defs>
	<clipPath id="SVGID_2_">
		<use xlink:href="#SVGID_1_"  style="overflow:visible;"/>
	</clipPath>
	<g class="st0">
		<path class="st1" d="M30.4,43.8v31.8"/>
		<path class="st2" d="M70.7,53.2c0.6,0,1.3-0.1,1.8-0.3c0.6-0.3,1.1-0.6,1.5-1.1l-1.4-1.2c-0.2,0.3-0.5,0.5-0.8,0.7
			c-0.3,0.2-0.7,0.2-1,0.2c-0.6,0-1.1-0.2-1.6-0.6c-0.4-0.4-0.6-1-0.6-1.5c0-0.6,0.2-1.1,0.6-1.5c0.4-0.4,1-0.6,1.6-0.6
			c0.4,0,0.7,0.1,1,0.2c0.3,0.2,0.6,0.4,0.8,0.7l1.4-1.2c-0.4-0.5-0.9-0.9-1.5-1.1c-0.6-0.2-1.2-0.4-1.8-0.3c-2.4,0-4.2,1.6-4.2,4
			C66.4,51.6,68.2,53.2,70.7,53.2L70.7,53.2z"/>
		<path class="st2" d="M80.6,53.1h2.3l-3.4-7.6h-2.1l-3.4,7.6h2.2l0.6-1.5H80L80.6,53.1L80.6,53.1z M77.4,50l1-2.4l1,2.5L77.4,50z"
			/>
		<path class="st2" d="M88.3,53.1h2.3L89,50.7c0.5-0.2,0.9-0.5,1.1-1c0.3-0.4,0.4-0.9,0.4-1.4c0-1.7-1.3-2.8-3.4-2.8h-3.5v7.6h2.2
			v-2h1.2L88.3,53.1z M88.3,48.3c0,0.7-0.4,1.1-1.3,1.1h-1.2v-2.2h1.2C87.8,47.2,88.2,47.6,88.3,48.3L88.3,48.3z"/>
		<path class="st2" d="M97.6,49.1c0.3-0.1,0.6-0.4,0.8-0.7c0.2-0.3,0.3-0.6,0.3-1c0-1.2-1-2-3-2h-3.9v7.6h4.2c2.1,0,3.2-0.8,3.2-2.1
			c0-0.4-0.1-0.8-0.4-1.2C98.3,49.5,98,49.2,97.6,49.1z M95.3,47c0.7,0,1.1,0.3,1.1,0.7s-0.4,0.7-1.1,0.7h-1.5V47H95.3z M95.6,51.5
			h-1.8V50h1.8c0.7,0,1.1,0.3,1.1,0.8C96.8,51.3,96.4,51.5,95.6,51.5z"/>
		<path class="st2" d="M104,53.2c2.5,0,4.3-1.7,4.3-4c0-2.3-1.8-4-4.3-4s-4.3,1.7-4.3,4C99.7,51.6,101.5,53.2,104,53.2z M104,51.5
			c-0.4,0-0.9-0.1-1.3-0.3c-0.4-0.2-0.7-0.6-0.9-0.9c-0.2-0.4-0.2-0.8-0.2-1.3c0.1-0.4,0.3-0.8,0.6-1.1c0.3-0.3,0.7-0.5,1.1-0.6
			c0.4-0.1,0.9-0.1,1.3,0.1c0.4,0.2,0.8,0.4,1,0.8c0.2,0.4,0.4,0.8,0.4,1.2c0,0.3,0,0.6-0.1,0.8c-0.1,0.3-0.2,0.5-0.4,0.7
			c-0.2,0.2-0.4,0.4-0.7,0.5C104.6,51.4,104.3,51.5,104,51.5z"/>
		<path class="st2" d="M114.6,45.5v4.1l-3.4-4.1h-1.8v7.6h2.1V49l3.4,4.1h1.8v-7.6H114.6z"/>
		<path class="st2" d="M42.5,51.4V50h3.4v-1.6h-3.4v-1.3h3.9v-1.7h-6v7.6h6.2v-1.7H42.5z"/>
		<path class="st2" d="M52.9,53.1h2.5l-3.3-4.2l3.2-3.4h-2.4l-3,3.2v-3.2h-2.2v7.6h2.2v-1.9l0.8-0.9L52.9,53.1z"/>
		<path class="st2" d="M59.6,53.2c2.5,0,4.3-1.7,4.3-4c0-2.3-1.8-4-4.3-4s-4.3,1.7-4.3,4C55.3,51.6,57.1,53.2,59.6,53.2z M59.6,51.5
			c-0.4,0-0.9-0.1-1.3-0.3c-0.4-0.2-0.7-0.6-0.9-0.9c-0.2-0.4-0.2-0.8-0.2-1.3c0.1-0.4,0.3-0.8,0.6-1.1c0.3-0.3,0.7-0.5,1.1-0.6
			c0.4-0.1,0.9-0.1,1.3,0.1c0.4,0.2,0.8,0.4,1,0.8c0.2,0.4,0.4,0.8,0.4,1.2c0,0.3,0,0.6-0.1,0.8c-0.1,0.3-0.2,0.5-0.4,0.7
			c-0.2,0.2-0.4,0.4-0.7,0.5C60.2,51.4,59.9,51.5,59.6,51.5L59.6,51.5z"/>
		<path class="st2" d="M47,63.1h2.3l-3.4-7.6h-2.1l-3.4,7.6h2.2l0.6-1.5h3.3L47,63.1z M43.8,60l1-2.4l1,2.4H43.8z"/>
		<path class="st2" d="M55.1,55.5v4.1l-3.4-4.1h-1.8v7.6H52V59l3.4,4.1h1.8v-7.6H55.1z"/>
		<path class="st2" d="M58.8,63.1h3.6c2.6,0,4.3-1.5,4.3-3.8c0-2.3-1.8-3.8-4.3-3.8h-3.6V63.1z M61,61.4v-4.2h1.4
			c1.3,0,2.2,0.8,2.2,2.1c0,1.3-0.9,2.1-2.2,2.1H61z"/>
		<path class="st2" d="M74.9,63.2c0.6,0,1.3-0.1,1.8-0.3c0.6-0.2,1.1-0.6,1.5-1.1l-1.4-1.2c-0.2,0.3-0.5,0.5-0.8,0.7
			c-0.3,0.2-0.7,0.2-1,0.2c-0.6,0-1.1-0.3-1.5-0.7c-0.4-0.4-0.6-0.9-0.6-1.5c0-0.6,0.2-1.1,0.6-1.5c0.4-0.4,0.9-0.6,1.5-0.7
			c0.4,0,0.7,0.1,1,0.2c0.3,0.2,0.6,0.4,0.8,0.6l1.4-1.2c-0.4-0.5-0.9-0.9-1.5-1.1c-0.6-0.2-1.2-0.4-1.8-0.3c-2.4,0-4.2,1.6-4.2,4
			C70.7,61.6,72.5,63.2,74.9,63.2z"/>
		<path class="st2" d="M82.9,63.2c2.5,0,4.3-1.7,4.3-4c0-2.3-1.8-4-4.3-4c-2.5,0-4.3,1.7-4.3,4C78.6,61.6,80.5,63.2,82.9,63.2z
			 M82.9,61.5c-0.4,0-0.9-0.1-1.3-0.3c-0.4-0.2-0.7-0.6-0.9-0.9c-0.2-0.4-0.2-0.8-0.2-1.3c0.1-0.4,0.3-0.8,0.6-1.1
			c0.3-0.3,0.7-0.5,1.1-0.6c0.4-0.1,0.9-0.1,1.3,0.1c0.4,0.2,0.8,0.4,1,0.8c0.2,0.4,0.4,0.8,0.4,1.2c0,0.3,0,0.6-0.1,0.8
			c-0.1,0.3-0.2,0.5-0.4,0.7c-0.2,0.2-0.4,0.4-0.7,0.5C83.5,61.4,83.2,61.4,82.9,61.5L82.9,61.5z"/>
		<path class="st2" d="M97.3,63.1l0-7.6h-1.8l-2.6,4.4l-2.7-4.4h-1.8v7.6h2v-3.9l2,3.2h1l2-3.3l0,4H97.3z"/>
		<path class="st2" d="M107.8,63.1l0-7.6H106l-2.6,4.4l-2.7-4.4h-1.8v7.6h2v-3.9l2,3.2h1l2-3.3l0,4H107.8z"/>
		<path class="st2" d="M113.3,63.2c2.5,0,4.3-1.7,4.3-4c0-2.3-1.8-4-4.3-4s-4.3,1.7-4.3,4C109,61.6,110.8,63.2,113.3,63.2z
			 M113.3,61.5c-0.4,0-0.9-0.1-1.3-0.3c-0.4-0.2-0.7-0.6-0.9-0.9c-0.2-0.4-0.2-0.8-0.2-1.3c0.1-0.4,0.3-0.8,0.6-1.1
			c0.3-0.3,0.7-0.5,1.1-0.6c0.4-0.1,0.9-0.1,1.3,0.1c0.4,0.2,0.8,0.4,1,0.8c0.2,0.4,0.4,0.8,0.4,1.2c0,0.3,0,0.6-0.1,0.8
			c-0.1,0.3-0.2,0.5-0.4,0.7c-0.2,0.2-0.4,0.4-0.7,0.5C113.8,61.4,113.5,61.4,113.3,61.5L113.3,61.5z"/>
		<path class="st2" d="M118.7,63.1h3.6c2.6,0,4.3-1.5,4.3-3.8c0-2.3-1.8-3.8-4.3-3.8h-3.6V63.1z M120.9,61.4v-4.2h1.4
			c1.3,0,2.2,0.8,2.2,2.1c0,1.3-0.9,2.1-2.2,2.1L120.9,61.4z"/>
		<path class="st2" d="M127.8,63.1h2.2v-7.6h-2.2V63.1z"/>
		<path class="st2" d="M133.2,63.1h2.2v-5.9h2.4v-1.7h-6.9v1.7h2.4V63.1z"/>
		<path class="st2" d="M145.4,55.5h-2.1l-1.8,3l-1.8-3h-2.3l2.9,4.8v2.8h2.2v-2.7L145.4,55.5z"/>
		<path class="st3" d="M44.2,68.4h1.6l-1.8,2.7l2,3h-1.6l-1.2-1.9l-1.2,1.9h-1.6l1.9-2.9l-1.8-2.8H42l1.1,1.7L44.2,68.4z"/>
		<path class="st3" d="M56.5,72.9c0.3,0,0.6-0.1,0.9-0.2c0.3-0.1,0.5-0.3,0.7-0.6l0.8,0.8c-0.3,0.3-0.6,0.6-1,0.8
			c-0.4,0.2-0.8,0.3-1.2,0.3c-0.4,0-0.8,0-1.2-0.2c-0.4-0.1-0.8-0.4-1.1-0.6c-0.6-0.6-0.9-1.3-0.9-2.1c0-0.8,0.3-1.5,0.9-2.1
			c0.3-0.3,0.6-0.5,1-0.6c0.4-0.1,0.8-0.2,1.2-0.2c0.5,0,0.9,0.1,1.3,0.3c0.4,0.2,0.8,0.5,1.1,0.8l-0.8,0.9
			c-0.2-0.2-0.4-0.4-0.7-0.6c-0.3-0.1-0.6-0.2-0.9-0.2c-0.5,0-0.9,0.2-1.2,0.5c-0.2,0.2-0.3,0.4-0.4,0.6c-0.1,0.2-0.1,0.5-0.1,0.7
			c0,0.2,0,0.5,0.1,0.7c0.1,0.2,0.2,0.4,0.4,0.6c0.2,0.2,0.3,0.3,0.5,0.4C56.1,72.9,56.3,72.9,56.5,72.9L56.5,72.9z"/>
		<path class="st3" d="M70.7,68.4H72v5.7h-1.3v-2.2h-2.3v2.2h-1.3v-5.7h1.3v2.4h2.3V68.4z"/>
		<path class="st3" d="M84.7,74.1l-0.5-1.2h-2.4l-0.5,1.2h-1.4l2.5-5.7h1.3l2.5,5.7H84.7z M83,70.1l-0.7,1.7h1.4L83,70.1z"/>
		<path class="st3" d="M98,68.4h1.3v5.7H98l-2.8-3.6v3.6H94v-5.7h1.2L98,72V68.4z"/>
		<path class="st3" d="M111.7,71.2h1.3v2c-0.3,0.3-0.7,0.6-1.1,0.7c-0.4,0.2-0.9,0.2-1.3,0.2c-0.4,0-0.8-0.1-1.2-0.2
			c-0.4-0.1-0.7-0.4-1-0.6c-0.6-0.6-0.9-1.3-0.9-2.1c0-0.8,0.3-1.5,0.9-2.1c0.3-0.3,0.6-0.5,1-0.6c0.4-0.1,0.8-0.2,1.2-0.2
			c0.8,0,1.6,0.3,2.2,0.8l-0.7,1c-0.2-0.2-0.5-0.3-0.7-0.4c-0.2-0.1-0.5-0.1-0.7-0.1c-0.2,0-0.5,0-0.7,0.1c-0.2,0.1-0.4,0.2-0.6,0.4
			c-0.2,0.2-0.3,0.4-0.4,0.6c-0.1,0.2-0.1,0.4-0.1,0.7c0,0.2,0,0.5,0.1,0.7c0.1,0.2,0.2,0.4,0.4,0.6c0.1,0.2,0.3,0.3,0.5,0.4
			c0.2,0.1,0.4,0.1,0.6,0.1c0.4,0,0.8-0.1,1.1-0.3V71.2L111.7,71.2z"/>
		<path class="st3" d="M125.5,68.4v1.1h-2.9v1.2h2.6v1.1h-2.6v1.2h3v1.1h-4.3v-5.7H125.5z"/>
		<path class="st2" d="M2.4,46.6c-2,0.5-3.9,1.4-5.5,2.7c-1.5,1.2-2.7,2.6-3.5,4.2C-7.5,55.2-8,57-8.1,58.8
			c-0.2,3.1,0.7,6.2,2.5,8.7c1.8,2.5,4.5,4.3,7.6,5.1c1.9,0.5,3.8,0.6,5.8,0.3c1.9-0.3,3.7-1.1,5.3-2.2l0.5-0.3v2.1
			c0,1.1,0,2.2,0,3.3c0,0.1,0,0.3-0.1,0.4c-0.1,0.1-0.2,0.2-0.3,0.3c-1.9,0.8-3.9,1.3-5.9,1.5c-0.1,0-0.3-0.1-0.4,0.1H3.9
			c-0.1-0.2-0.2-0.1-0.3-0.1c-4.3-0.4-8.4-2.3-11.4-5.4c-4.6-4.7-6.3-10.4-5-16.8c0.8-3.6,2.6-6.9,5.3-9.5c2.7-2.6,6.1-4.2,9.8-4.8
			c0,0.1,0,0.1,0,0.2c0,0-0.1,0.1-0.1,0.1C1.6,42.4,1,43,0.4,43.6c-0.1,0.1-0.3,0.2-0.1,0.4C1.1,44.9,1.8,45.8,2.4,46.6z"/>
		
			<linearGradient id="SVGID_3_" gradientUnits="userSpaceOnUse" x1="4.3667" y1="-1.0886" x2="21.7175" y2="-22.4677" gradientTransform="matrix(1 0 0 -1 0 37.8898)">
			<stop  offset="0" style="stop-color:#FFFFFF"/>
			<stop  offset="0.388" style="stop-color:#FFFFFF"/>
			<stop  offset="1" style="stop-color:#FFFFFF"/>
		</linearGradient>
		<path class="st4" d="M2.4,46.6c-0.7-0.9-1.3-1.8-2.1-2.6c-0.2-0.2-0.1-0.3,0.1-0.4C1,43,1.6,42.4,2.2,41.9c0,0,0.1-0.1,0.1-0.1
			c0,0,0-0.1,0-0.2c0.5-0.2,1.1-0.1,1.6-0.3h2.9c0.1,0.1,0.2,0.1,0.3,0.1c1.5,0.1,2.9,0.4,4.3,0.9c3.2,1,6,2.9,8.1,5.4
			c2.6,2.9,4.2,6.6,4.5,10.5c0,0.4,0,0.9,0.2,1.3v0.8c-0.4,0-0.7-0.1-1-0.2c-3.5-0.7-7-1.4-10.4-2.2c-0.5-0.1-1.1-0.1-1.6-0.5
			c1.3-0.1,2.6-0.1,3.8-0.1c1.1,0,2.2,0,3.3,0c0.3,0,0.4-0.1,0.3-0.4c-0.6-2.6-2-5-3.9-6.8c-2-1.8-4.4-3.1-7.1-3.5
			C5.9,46.3,4.1,46.3,2.4,46.6z"/>
		<path class="st2" d="M11.2,57.4c0.4,0.4,1,0.4,1.6,0.5c3.5,0.8,6.9,1.5,10.4,2.2c0.3,0.1,0.7,0.2,1,0.2v0.6
			c-0.1,0.9-0.7,0.8-1.4,0.8c-6.1,0-12.2,0-18.3-0.1c-0.4,0-0.5-0.1-0.5-0.5c0-1.1,0-2.2,0-3.3c0-0.3,0.1-0.4,0.4-0.4
			c1.2,0,2.5,0,3.7,0C9.1,57.4,10.2,57.3,11.2,57.4z"/>
		<path class="st2" d="M7.2,53.8c-2,0-3.7,0.6-5,2.1c-1.4,1.7-1.6,3.6-1.1,5.6c0.9,3.5,4.6,5.1,8.2,3.7c0.9-0.4,1.7-1,2.4-1.7
			c0.2-0.2,0.3-0.3,0.6,0c0.8,0.8,1.5,1.6,2.3,2.4c0.2,0.2,0.2,0.3,0,0.5c-4.7,5.3-13,4.4-16.6-0.7c-1.4-2-2-4.4-1.7-6.8
			c0.4-4,2.5-6.8,6.1-8.4c0.6-0.3,1.3-0.5,2-0.6c0.2,0.3,0.4,0.6,0.6,0.9C5.8,51.7,6.6,52.7,7.2,53.8z"/>
		<path class="st2" d="M7.2,53.8c-0.6-1.1-1.5-2.1-2.2-3.1c-0.2-0.3-0.4-0.6-0.6-0.9c1.2-0.3,2.5-0.4,3.7-0.2
			c2.4,0.3,4.7,1.4,6.4,3.1c0.4,0.4,0.4,0.6,0,1c-0.7,0.8-1.4,1.6-2.1,2.4c-0.2,0.2-0.3,0.3-0.5,0c-0.6-0.7-1.3-1.3-2.1-1.7
			C9,54,8.2,53.8,7.2,53.8z"/>
		<path class="st2" d="M40,91.2c-2,0.5-3.9,1.4-5.5,2.7c-1.5,1.2-2.7,2.6-3.5,4.2c-0.9,1.6-1.4,3.4-1.5,5.3
			c-0.2,3.1,0.7,6.2,2.5,8.7c1.8,2.5,4.5,4.3,7.6,5.1c1.9,0.5,3.8,0.6,5.8,0.3c1.9-0.3,3.7-1.1,5.3-2.2l0.5-0.3v2.1
			c0,1.1,0,2.2,0,3.3c0,0.1,0,0.3-0.1,0.4c-0.1,0.1-0.2,0.2-0.3,0.3c-1.9,0.8-3.9,1.3-5.9,1.5c-0.1,0-0.3-0.1-0.4,0.1h-2.9
			c-0.1-0.2-0.2-0.1-0.3-0.1c-4.3-0.4-8.4-2.3-11.4-5.4c-4.6-4.7-6.3-10.4-5-16.8c0.8-3.6,2.6-6.9,5.3-9.5c2.7-2.6,6.1-4.2,9.8-4.8
			c0,0.1,0,0.1,0,0.2c0,0-0.1,0.1-0.1,0.1c-0.6,0.6-1.2,1.2-1.8,1.8c-0.1,0.1-0.3,0.2-0.1,0.4C38.7,89.4,39.4,90.3,40,91.2z"/>
		
			<linearGradient id="SVGID_4_" gradientUnits="userSpaceOnUse" x1="41.9804" y1="-45.6445" x2="59.3312" y2="-67.0236" gradientTransform="matrix(1 0 0 -1 0 37.8898)">
			<stop  offset="0" style="stop-color:#FFFFFF"/>
			<stop  offset="0.388" style="stop-color:#FFFFFF"/>
			<stop  offset="1" style="stop-color:#FFFFFF"/>
		</linearGradient>
		<path class="st5" d="M40,91.2c-0.7-0.9-1.3-1.8-2.1-2.6c-0.2-0.2-0.1-0.3,0.1-0.4c0.6-0.6,1.2-1.2,1.8-1.8c0,0,0.1-0.1,0.1-0.1
			c0,0,0-0.1,0-0.2c0.5-0.2,1.1-0.1,1.6-0.3h2.9c0.1,0.1,0.2,0.1,0.3,0.1c1.5,0.1,2.9,0.4,4.3,0.9c3.2,1,6,2.9,8.1,5.4
			c2.6,2.9,4.2,6.6,4.5,10.5c0,0.4,0,0.9,0.2,1.3v0.8c-0.4,0-0.7-0.1-1-0.2c-3.5-0.7-7-1.4-10.4-2.2c-0.5-0.1-1.1-0.1-1.6-0.5
			c1.3-0.1,2.6-0.1,3.8-0.1c1.1,0,2.2,0,3.3,0c0.3,0,0.4-0.1,0.3-0.4c-0.6-2.6-2-5-3.9-6.8c-2-1.8-4.4-3.1-7.1-3.5
			C43.5,90.8,41.8,90.9,40,91.2z"/>
		<path class="st2" d="M48.8,101.9c0.4,0.4,1,0.4,1.6,0.5c3.5,0.8,6.9,1.5,10.4,2.2c0.3,0.1,0.7,0.2,1,0.2v0.6
			c-0.1,0.9-0.7,0.8-1.4,0.8c-6.1,0-12.2,0-18.3-0.1c-0.4,0-0.5-0.1-0.5-0.5c0-1.1,0-2.2,0-3.3c0-0.3,0.1-0.4,0.4-0.4
			c1.2,0,2.5,0,3.7,0C46.7,102,47.8,101.8,48.8,101.9z"/>
		<path class="st2" d="M44.9,98.3c-2,0-3.7,0.6-5,2.1c-1.4,1.7-1.6,3.6-1.1,5.6c0.9,3.5,4.6,5.1,8.2,3.7c0.9-0.4,1.7-1,2.4-1.7
			c0.2-0.2,0.3-0.3,0.6,0c0.8,0.8,1.5,1.6,2.3,2.4c0.2,0.2,0.2,0.3,0,0.5c-4.7,5.3-13,4.4-16.6-0.7c-1.4-2-2-4.4-1.7-6.8
			c0.4-4,2.5-6.8,6.1-8.4c0.6-0.3,1.3-0.5,2-0.6c0.2,0.3,0.4,0.6,0.6,0.9C43.4,96.3,44.2,97.2,44.9,98.3z"/>
		<path class="st2" d="M44.9,98.3c-0.6-1.1-1.5-2.1-2.2-3.1c-0.2-0.3-0.4-0.6-0.6-0.9c1.2-0.3,2.5-0.4,3.7-0.2
			c2.4,0.3,4.7,1.4,6.4,3.1c0.4,0.4,0.4,0.6,0,1c-0.7,0.8-1.4,1.6-2.1,2.4c-0.2,0.2-0.3,0.3-0.5,0c-0.6-0.7-1.3-1.3-2.1-1.7
			C46.7,98.6,45.8,98.4,44.9,98.3z"/>
	</g>
	<g class="st0">
		<rect x="79" y="-16.4" class="st6" width="93" height="44"/>
		<text transform="matrix(1 0 0 1 79.0323 -7.9026)"><tspan x="0" y="0" class="st7 st8">Lorem ipsum </tspan><tspan x="0" y="14.4" class="st7 st8">dolor sit amet, </tspan><tspan x="0" y="28.8" class="st7 st8">consectetuer </tspan></text>
	</g>
	<g class="st0">
		<text transform="matrix(1 0 0 1 72.8704 -25.0742)" class="st7 st8" style="fill:#020202;">PROJECT</text>
	</g>
</g>
<text transform="matrix(1 0 0 1 45.7596 -38.4073)" style="font-family:'Gotham-Black'; font-size:13px; letter-spacing:1;">PROJECT</text>
<text transform="matrix(1 0 0 1 46.5651 -23.8888)" style="font-family:'Gotham-Black'; font-size:13px; letter-spacing:1;">PILOT</text>
<path class="st9" d="M-2.8,92.4h-3c-2.3,0-4.1-1.8-4.1-4.1V65.5c0-2.3,1.8-4.1,4.1-4.1h3c2.3,0,4.1,1.8,4.1,4.1v22.8
	C1.3,90.6-0.5,92.4-2.8,92.4z"/>
<circle class="st2" cx="-4" cy="67.4" r="5.3"/>
<path class="st2" d="M9.6-46.6c-2,0.5-3.9,1.4-5.5,2.7c-1.5,1.2-2.7,2.6-3.5,4.2c-0.9,1.6-1.4,3.4-1.5,5.3c-0.2,3.1,0.7,6.2,2.5,8.7
	c1.8,2.5,4.5,4.3,7.6,5.1c1.9,0.5,3.8,0.6,5.8,0.3c1.9-0.3,3.7-1.1,5.3-2.2l0.5-0.3v2.1c0,1.1,0,2.2,0,3.3c0,0.1,0,0.3-0.1,0.4
	c-0.1,0.1-0.2,0.2-0.3,0.3c-1.9,0.8-3.9,1.3-5.9,1.5c-0.1,0-0.3-0.1-0.4,0.1h-2.9c-0.1-0.2-0.2-0.1-0.3-0.1
	c-4.3-0.4-8.4-2.3-11.4-5.4c-4.6-4.7-6.3-10.4-5-16.8c0.8-3.6,2.6-6.9,5.3-9.5c2.7-2.6,6.1-4.2,9.8-4.8c0,0.1,0,0.1,0,0.2
	c0,0-0.1,0.1-0.1,0.1c-0.6,0.6-1.2,1.2-1.8,1.8c-0.1,0.1-0.3,0.2-0.1,0.4C8.3-48.4,9-47.5,9.6-46.6z"/>
<linearGradient id="SVGID_5_" gradientUnits="userSpaceOnUse" x1="11.5746" y1="92.1667" x2="28.9254" y2="70.7876" gradientTransform="matrix(1 0 0 -1 0 37.8898)">
	<stop  offset="0" style="stop-color:#FFFFFF"/>
	<stop  offset="0.388" style="stop-color:#FFFFFF"/>
	<stop  offset="1" style="stop-color:#FFFFFF"/>
</linearGradient>
<path class="st10" d="M9.6-46.6c-0.7-0.9-1.3-1.8-2.1-2.6c-0.2-0.2-0.1-0.3,0.1-0.4c0.6-0.6,1.2-1.2,1.8-1.8c0,0,0.1-0.1,0.1-0.1
	c0,0,0-0.1,0-0.2c0.5-0.2,1.1-0.1,1.6-0.3H14c0.1,0.1,0.2,0.1,0.3,0.1c1.5,0.1,2.9,0.4,4.3,0.9c3.2,1,6,2.9,8.1,5.4
	c2.6,2.9,4.2,6.6,4.5,10.5c0,0.4,0,0.9,0.2,1.3v0.8c-0.4,0-0.7-0.1-1-0.2c-3.5-0.7-7-1.4-10.4-2.2c-0.5-0.1-1.1-0.1-1.6-0.5
	c1.3-0.1,2.6-0.1,3.8-0.1c1.1,0,2.2,0,3.3,0c0.3,0,0.4-0.1,0.3-0.4c-0.6-2.6-2-5-3.9-6.8c-2-1.8-4.4-3.1-7.1-3.5
	C13.1-47,11.4-46.9,9.6-46.6z"/>
<path class="st2" d="M18.4-35.9c0.4,0.4,1,0.4,1.6,0.5c3.5,0.8,6.9,1.5,10.4,2.2c0.3,0.1,0.7,0.2,1,0.2v0.6
	c-0.1,0.9-0.7,0.8-1.4,0.8c-6.1,0-12.2,0-18.3-0.1c-0.4,0-0.5-0.1-0.5-0.5c0-1.1,0-2.2,0-3.3c0-0.3,0.1-0.4,0.4-0.4
	c1.2,0,2.5,0,3.7,0C16.3-35.8,17.4-36,18.4-35.9z"/>
<path class="st2" d="M14.4-39.5c-2,0-3.7,0.6-5,2.1c-1.4,1.7-1.6,3.6-1.1,5.6c0.9,3.5,4.6,5.1,8.2,3.7c0.9-0.4,1.7-1,2.4-1.7
	c0.2-0.2,0.3-0.3,0.6,0c0.8,0.8,1.5,1.6,2.3,2.4c0.2,0.2,0.2,0.3,0,0.5c-4.7,5.3-13,4.4-16.6-0.7c-1.4-2-2-4.4-1.7-6.8
	c0.4-4,2.5-6.8,6.1-8.4c0.6-0.3,1.3-0.5,2-0.6c0.2,0.3,0.4,0.6,0.6,0.9C13-41.5,13.8-40.6,14.4-39.5z"/>
<path class="st2" d="M14.4-39.5c-0.6-1.1-1.5-2.1-2.2-3.1c-0.2-0.3-0.4-0.6-0.6-0.9c1.2-0.3,2.5-0.4,3.7-0.2
	c2.4,0.3,4.7,1.4,6.4,3.1c0.4,0.4,0.4,0.6,0,1c-0.7,0.8-1.4,1.6-2.1,2.4c-0.2,0.2-0.3,0.3-0.5,0c-0.6-0.7-1.3-1.3-2.1-1.7
	C16.3-39.2,15.4-39.5,14.4-39.5z"/>
</svg>
