<svg width="127" height="110" viewBox="0 0 127 110" fill="none" xmlns="http://www.w3.org/2000/svg">
<path d="M29.1949 22.5968C30.5929 22.5968 31.7262 21.4628 31.7262 20.064C31.7262 18.6652 30.5929 17.5312 29.1949 17.5312C27.7969 17.5312 26.6636 18.6652 26.6636 20.064C26.6636 21.4628 27.7969 22.5968 29.1949 22.5968Z" fill="#EAEEF9"/>
<path d="M98.4722 30.3272C99.8702 30.3272 101.004 29.1933 101.004 27.7945C101.004 26.3957 99.8702 25.2617 98.4722 25.2617C97.0742 25.2617 95.9409 26.3957 95.9409 27.7945C95.9409 29.1933 97.0742 30.3272 98.4722 30.3272Z" fill="#EAEEF9"/>
<path d="M34.3239 13.9976C34.8757 13.9976 35.3231 13.55 35.3231 12.9978C35.3231 12.4457 34.8757 11.998 34.3239 11.998C33.7721 11.998 33.3247 12.4457 33.3247 12.9978C33.3247 13.55 33.7721 13.9976 34.3239 13.9976Z" fill="#EAEEF9"/>
<path d="M95.5414 19.5957C96.13 19.5957 96.6072 19.1183 96.6072 18.5293C96.6072 17.9403 96.13 17.4629 95.5414 17.4629C94.9528 17.4629 94.4756 17.9403 94.4756 18.5293C94.4756 19.1183 94.9528 19.5957 95.5414 19.5957Z" fill="#EAEEF9"/>
<path d="M63.3007 79.3167C83.5348 79.3167 99.9378 62.9042 99.9378 42.6583C99.9378 22.4125 83.5348 6 63.3007 6C43.0666 6 26.6636 22.4125 26.6636 42.6583C26.6636 62.9042 43.0666 79.3167 63.3007 79.3167Z" fill="#EAEEF9"/>
<g filter="url(#filter0_d_2686_122704)">
<path d="M73.5589 63.6517L41.718 76.5155C41.1851 76.7154 40.5855 76.4488 40.3857 75.9822L22.0671 30.4593C21.8673 29.926 22.1337 29.3262 22.6 29.1262L54.441 16.2625C54.9739 16.0625 55.5735 16.3291 55.7733 16.7957L74.0919 62.252C74.3583 62.8519 74.0919 63.4518 73.5589 63.6517Z" fill="white"/>
</g>
<path d="M59.5037 36.7256L32.8585 47.4565C32.5921 47.5898 32.3256 47.4565 32.1924 47.1899C32.0592 46.9233 32.1924 46.6567 32.4589 46.5234L59.0374 35.7925C59.3039 35.6592 59.5703 35.7925 59.7036 36.0591C59.8368 36.3257 59.7036 36.5923 59.5037 36.7256Z" fill="#E6EDF5"/>
<path d="M60.503 39.3253L33.9244 50.0562C33.658 50.1895 33.3915 50.0562 33.2583 49.7895C33.1251 49.5229 33.2583 49.2563 33.5248 49.123L60.1033 38.3921C60.3698 38.2588 60.6362 38.3921 60.7695 38.6587C60.9027 38.9254 60.7695 39.192 60.503 39.3253Z" fill="#E6EDF5"/>
<path d="M61.5685 41.8563L34.9899 52.6538C34.7234 52.7871 34.457 52.6538 34.3237 52.3872C34.1905 52.1206 34.3237 51.854 34.5902 51.7207L61.1688 40.9898C61.4352 40.8565 61.7017 40.9898 61.8349 41.2564C61.9681 41.4564 61.8349 41.7896 61.5685 41.8563Z" fill="#E6EDF5"/>
<path d="M46.0477 51.1885L36.0558 55.2543C35.7893 55.3876 35.5229 55.2543 35.3897 54.9877C35.2564 54.7211 35.3897 54.4545 35.6561 54.3212L45.6481 50.2554C45.9145 50.1221 46.181 50.2554 46.3142 50.522C46.3808 50.7886 46.3142 51.0552 46.0477 51.1885Z" fill="#E6EDF5"/>
<path d="M65.0324 48.4553L65.8984 50.6548C66.0316 51.0547 65.8984 51.5213 65.4987 51.6546L39.1866 62.3189C38.7869 62.4522 38.3206 62.3189 38.1874 61.9189L37.3214 59.6528C37.1882 59.2529 37.3214 58.7863 37.7211 58.653L64.0332 48.0554C64.4329 47.9221 64.8326 48.1221 65.0324 48.4553Z" fill="#E3EAF2"/>
<path d="M67.0976 53.5217L67.9636 55.7212C68.0968 56.1212 67.9636 56.5877 67.5639 56.721L41.2518 67.3853C40.8521 67.5186 40.3858 67.3853 40.2526 66.9853L39.32 64.7192C39.1868 64.3193 39.32 63.8527 39.7197 63.7194L66.0318 53.1218C66.4315 52.9885 66.8977 53.1885 67.0976 53.5217Z" fill="#E3EAF2"/>
<path d="M69.0959 58.5869L69.9619 60.7864C70.0951 61.1863 69.9619 61.6528 69.5622 61.7861L43.2501 72.4504C42.8504 72.5837 42.3841 72.4504 42.2509 72.0505L41.3849 69.851C41.2517 69.4511 41.3849 68.9845 41.7846 68.8512L68.0967 58.2536C68.4964 58.0537 68.9627 58.2536 69.0959 58.5869Z" fill="#E3EAF2"/>
<path d="M40.4523 57.5859L41.9177 61.2518L39.1866 62.3182C38.7869 62.4515 38.3206 62.3182 38.1874 61.9183L37.3214 59.6521C37.1882 59.2522 37.3214 58.7857 37.7211 58.6524L40.4523 57.5859Z" fill="#989FB0"/>
<path d="M39.7862 63.7191L47.7798 60.4531L49.2452 64.119L41.2517 67.3849C40.852 67.5182 40.3857 67.3849 40.2525 66.985L39.3199 64.7188C39.1867 64.3856 39.3865 63.919 39.7862 63.7191Z" fill="#B4BACA"/>
<path d="M41.7846 68.7849L42.917 68.3184L44.3825 71.9842L43.2501 72.4508C42.8504 72.5841 42.3841 72.4508 42.2509 72.0508L41.3849 69.8513C41.2517 69.4514 41.3849 68.9849 41.7846 68.7849Z" fill="#B4BACA"/>
<path d="M42.1843 34.4581C42.1176 30.7923 39.1201 27.793 35.3897 27.793H35.3231C31.5928 27.793 28.5952 30.8589 28.5952 34.5914C28.6618 38.3239 31.726 41.3232 35.4564 41.3232C37.5214 41.3232 39.3199 40.3901 40.5855 38.9904C41.6514 37.7907 42.2509 36.2577 42.2509 34.5248C42.1843 34.5248 42.1843 34.5248 42.1843 34.4581ZM35.4564 39.1904C32.9251 39.1904 30.8601 37.1242 30.8601 34.5914C30.8601 32.0587 32.9251 29.9925 35.4564 29.9925H35.523C38.0543 29.9925 40.0526 31.992 40.1193 34.4581C40.1193 34.5248 40.1193 34.5248 40.1193 34.5914C40.1193 35.7245 39.7196 36.7909 38.9868 37.5907C38.0543 38.5905 36.8552 39.1904 35.4564 39.1904Z" fill="#E6EDF5"/>
<path d="M42.1842 34.4581H39.9859C39.9859 31.992 37.9209 29.9925 35.4563 29.9925H35.3896V27.793H35.4563C39.12 27.793 42.1176 30.7923 42.1842 34.4581Z" fill="#989FB0"/>
<g filter="url(#filter1_d_2686_122704)">
<path d="M86.5484 73.9859L54.3744 61.9886C53.8415 61.7886 53.575 61.1888 53.7748 60.6556L70.8278 14.7327C71.0276 14.1994 71.6271 13.9328 72.16 14.1328L104.334 26.0634C104.867 26.2634 105.133 26.8632 104.934 27.3964L87.8807 73.386C87.6808 73.9192 87.0813 74.1858 86.5484 73.9859Z" fill="white"/>
</g>
<path opacity="0.4" d="M82.2854 34.795L79.6875 33.7953L81.8191 27.8633L84.417 28.7964L82.2854 34.795Z" fill="#E6EDF5"/>
<path d="M85.8159 36.0605L83.1514 35.0607L86.4154 25.9961L89.0133 26.9959L85.8159 36.0605Z" fill="#B4BACA"/>
<path d="M92.8103 38.5278L90.2124 37.5947L94.4756 25.6641L97.1402 26.5972L92.8103 38.5278Z" fill="#B4BACA"/>
<path opacity="0.4" d="M96.1409 39.7283L93.543 38.7952L94.6754 35.5293L97.3399 36.5291L96.1409 39.7283Z" fill="#E6EDF5"/>
<path d="M94.2758 44.5926L67.3642 34.5949C67.0977 34.5282 66.9645 34.195 67.0311 33.9284C67.0977 33.6618 67.4308 33.5285 67.6973 33.5951L94.6089 43.5928C94.8754 43.6595 95.0086 43.9927 94.942 44.2594C94.8087 44.526 94.5423 44.6593 94.2758 44.5926Z" fill="#E6EDF5"/>
<path d="M93.2763 47.1922L66.3647 37.1945C66.0982 37.1278 65.965 36.7946 66.0316 36.528C66.0982 36.2614 66.4313 36.1281 66.6978 36.1947L93.6094 46.1924C93.8758 46.2591 94.0091 46.5924 93.9425 46.859C93.8758 47.1256 93.5428 47.3255 93.2763 47.1922Z" fill="#E6EDF5"/>
<path d="M92.3437 49.7918L65.4321 39.7941C65.1656 39.7274 65.0324 39.3942 65.099 39.1276C65.1656 38.861 65.4987 38.7277 65.7651 38.7943L92.6768 48.7921C92.9432 48.8587 93.0765 49.192 93.0098 49.4586C92.8766 49.7918 92.6102 49.9251 92.3437 49.7918Z" fill="#E6EDF5"/>
<path d="M74.6251 46.1926L64.4999 42.4601C64.2335 42.3935 64.1003 42.0602 64.1669 41.7936C64.2335 41.527 64.5666 41.3937 64.833 41.4603L74.9582 45.1928C75.2246 45.2595 75.3579 45.5927 75.2912 45.8593C75.158 46.1259 74.8916 46.2593 74.6251 46.1926Z" fill="#DDDDDD"/>
<path d="M90.479 56.9896L89.6796 59.2557C89.5464 59.6556 89.0801 59.8556 88.6804 59.7223L82.9517 57.5894L62.0352 49.7912C61.6355 49.6579 61.4357 49.1913 61.5689 48.7914L62.3683 46.5253C62.5015 46.1254 62.9678 45.9254 63.3675 46.0587L84.1507 53.7903L89.9461 55.9231C90.4123 56.1897 90.6122 56.5896 90.479 56.9896Z" fill="#E6EDF5"/>
<path d="M88.5471 62.1221L87.7478 64.3883C87.6145 64.7882 87.1482 64.9881 86.7486 64.8548L84.8168 64.1217L60.17 54.9904C59.7703 54.8571 59.5705 54.3905 59.7037 53.9906L60.5031 51.7245C60.6363 51.3246 61.1026 51.1246 61.5023 51.2579L86.2157 60.4558L88.0808 61.189C88.4805 61.3223 88.6803 61.7222 88.5471 62.1221Z" fill="#E6EDF5"/>
<path d="M86.6819 67.2549L85.8825 69.5211C85.7493 69.921 85.283 70.1209 84.8833 69.9876L75.0246 66.3218L58.3048 60.1232C57.9051 59.9899 57.7052 59.5234 57.8385 59.1234L58.6378 56.8573C58.771 56.4574 59.2373 56.2574 59.637 56.3907L76.7565 62.7226L86.2156 66.2552C86.6153 66.3885 86.8151 66.855 86.6819 67.2549Z" fill="#E6EDF5"/>
<path d="M59.637 56.3914L76.7565 62.7233L75.0246 66.2558L58.3048 60.0572C57.9051 59.9239 57.7052 59.4573 57.8385 59.0574L58.6378 56.7913C58.771 56.458 59.2373 56.2581 59.637 56.3914Z" fill="#B4B9C9"/>
<path d="M61.5689 48.8578L62.3683 46.5917C62.5015 46.1918 62.9678 45.9918 63.3675 46.1251L84.1507 53.8567L82.8185 57.5225L62.0352 49.7909C61.6355 49.6576 61.4357 49.2577 61.5689 48.8578Z" fill="#B4B9C9"/>
<path d="M86.2157 60.4558L84.8168 64.1217L60.17 54.9904C59.7703 54.8571 59.5705 54.3905 59.7037 53.9906L60.5031 51.7245C60.6363 51.3246 61.1026 51.1246 61.5023 51.2579L86.2157 60.4558Z" fill="#B4B9C9"/>
<path d="M68.3635 47.9916L67.0312 51.6574L62.0352 49.7912C61.6355 49.6579 61.4357 49.1913 61.5689 48.7914L62.3683 46.5253C62.5015 46.1254 62.9678 45.9254 63.3675 46.0587L68.3635 47.9916Z" fill="#DDDDDD"/>
<path d="M61.5023 51.2586L66.4982 53.1248L65.166 56.7906L60.17 54.9244C59.7703 54.7911 59.5705 54.3245 59.7037 53.9246L60.5031 51.6585C60.7029 51.3252 61.1026 51.1252 61.5023 51.2586Z" fill="#DDDDDD"/>
<path d="M59.637 56.3914L64.633 58.2576L63.3007 61.9234L58.3048 60.0572C57.9051 59.9239 57.7052 59.4573 57.8385 59.0574L58.6378 56.7913C58.771 56.458 59.2373 56.2581 59.637 56.3914Z" fill="#DDDDDD"/>
<g filter="url(#filter2_d_2686_122704)">
<path d="M80.8195 62.8558H46.5138C45.9809 62.8558 45.5146 62.3893 45.5146 61.8561V12.8006C45.5146 12.2673 45.9809 11.8008 46.5138 11.8008H80.8195C81.3524 11.8008 81.8187 12.2673 81.8187 12.8006V61.7894C81.8853 62.3893 81.419 62.8558 80.8195 62.8558Z" fill="white"/>
</g>
<path d="M77.822 30.6615H49.1784C48.912 30.6615 48.6455 30.4617 48.6455 30.1286C48.6455 29.8622 48.8453 29.5957 49.1784 29.5957H77.822C78.0884 29.5957 78.3549 29.7955 78.3549 30.1286C78.3549 30.3951 78.0884 30.6615 77.822 30.6615Z" fill="#E6EDF5"/>
<path d="M77.822 33.3939H49.1784C48.912 33.3939 48.6455 33.1941 48.6455 32.861C48.6455 32.5946 48.8453 32.3281 49.1784 32.3281H77.822C78.0884 32.3281 78.3549 32.528 78.3549 32.861C78.3549 33.1941 78.0884 33.3939 77.822 33.3939Z" fill="#E6EDF5"/>
<path d="M77.822 36.1928H49.1784C48.912 36.1928 48.6455 35.9929 48.6455 35.6599C48.6455 35.3934 48.8453 35.127 49.1784 35.127H77.822C78.0884 35.127 78.3549 35.3268 78.3549 35.6599C78.3549 35.9929 78.0884 36.1928 77.822 36.1928Z" fill="#E6EDF5"/>
<path d="M77.7553 46.6576H68.0964C67.8299 46.6576 67.5635 46.4578 67.5635 46.1247C67.5635 45.8582 67.7633 45.5918 68.0964 45.5918H77.7553C78.0217 45.5918 78.2882 45.7916 78.2882 46.1247C78.2215 46.3912 78.0217 46.6576 77.7553 46.6576Z" fill="#E6EDF5"/>
<path d="M62.1681 49.5245C62.1015 45.8587 59.1039 42.8594 55.3736 42.8594H55.307C51.5767 42.8594 48.5791 45.9253 48.5791 49.6578C48.5791 53.3903 51.6433 56.4563 55.3736 56.4563C57.4386 56.4563 59.2372 55.5232 60.5028 54.1235C61.5686 52.9238 62.1681 51.3908 62.1681 49.6578C62.1681 49.5912 62.1681 49.5245 62.1681 49.5245ZM55.3736 54.1901C52.8423 54.1901 50.7773 52.1239 50.7773 49.5912C50.7773 47.0584 52.8423 44.9922 55.3736 44.9922H55.4402C57.9715 44.9922 59.9699 46.9918 60.0365 49.4579C60.0365 49.5245 60.0365 49.5245 60.0365 49.5912C60.0365 50.7243 59.6369 51.7907 58.9041 52.5905C57.9715 53.5903 56.7725 54.1901 55.3736 54.1901Z" fill="#E6EDF5"/>
<path d="M62.1683 49.5245H59.97C59.9034 47.0584 57.905 45.0589 55.3737 45.0589H55.3071V42.8594H55.3737C59.1041 42.8594 62.1017 45.792 62.1683 49.5245Z" fill="#989FB0"/>
<path d="M62.1681 49.5901C62.1681 51.323 61.5685 52.856 60.5027 54.0557L58.8374 52.6561C59.5701 51.8562 59.9698 50.7898 59.9698 49.6567C59.9698 49.5901 59.9698 49.5901 59.9698 49.5234H62.1681V49.5901Z" fill="#B4BACA"/>
<path d="M65.765 46.857C66.1697 46.857 66.4977 46.5287 66.4977 46.1238C66.4977 45.7189 66.1697 45.3906 65.765 45.3906C65.3603 45.3906 65.0322 45.7189 65.0322 46.1238C65.0322 46.5287 65.3603 46.857 65.765 46.857Z" fill="#E6EDF5"/>
<path d="M77.7553 49.724H68.0964C67.8299 49.724 67.5635 49.5242 67.5635 49.1911C67.5635 48.9247 67.7633 48.6582 68.0964 48.6582H77.7553C78.0217 48.6582 78.2882 48.858 78.2882 49.1911C78.2215 49.4576 78.0217 49.724 77.7553 49.724Z" fill="#E6EDF5"/>
<path d="M65.765 49.9253C66.1697 49.9253 66.4977 49.5971 66.4977 49.1922C66.4977 48.7872 66.1697 48.459 65.765 48.459C65.3603 48.459 65.0322 48.7872 65.0322 49.1922C65.0322 49.5971 65.3603 49.9253 65.765 49.9253Z" fill="#B4BACA"/>
<path d="M77.7553 52.7904H68.0964C67.8299 52.7904 67.5635 52.5906 67.5635 52.2575C67.5635 51.9911 67.7633 51.7246 68.0964 51.7246H77.7553C78.0217 51.7246 78.2882 51.9245 78.2882 52.2575C78.2215 52.524 78.0217 52.7904 77.7553 52.7904Z" fill="#E6EDF5"/>
<path d="M65.765 52.9917C66.1697 52.9917 66.4977 52.6635 66.4977 52.2586C66.4977 51.8536 66.1697 51.5254 65.765 51.5254C65.3603 51.5254 65.0322 51.8536 65.0322 52.2586C65.0322 52.6635 65.3603 52.9917 65.765 52.9917Z" fill="#989FB0"/>
<path d="M48.8452 26.9951H78.2881V15.0645L73.6252 17.3973L71.1606 19.1302L66.7641 19.0635L62.9006 21.0631L59.5699 21.5296L58.3709 22.8627L54.907 25.0622L51.5097 25.662L48.8452 26.9951Z" fill="#989FB0"/>
<path d="M48.8452 26.9962H78.2881V17.9316L73.6252 19.6646L71.1606 20.9976L66.7641 20.931L62.9006 22.4639L59.5699 22.8639L58.3709 23.797L54.907 25.5299L51.5097 25.9965L48.8452 26.9962Z" fill="#E6EDF5"/>
<path d="M48.8452 26.9954H78.2881V21.8633L73.6252 22.8631L71.1606 23.5962H66.7641L62.9006 24.396L59.5699 24.6626L58.3709 25.1959L54.907 26.129L51.5097 26.3956L48.8452 26.9954Z" fill="#CED7E2"/>
<defs>
<filter id="filter0_d_2686_122704" x="0" y="5.19531" width="96.1963" height="104.387" filterUnits="userSpaceOnUse" color-interpolation-filters="sRGB">
<feFlood flood-opacity="0" result="BackgroundImageFix"/>
<feColorMatrix in="SourceAlpha" type="matrix" values="0 0 0 0 0 0 0 0 0 0 0 0 0 0 0 0 0 0 127 0" result="hardAlpha"/>
<feOffset dy="11"/>
<feGaussianBlur stdDeviation="11"/>
<feColorMatrix type="matrix" values="0 0 0 0 0.397708 0 0 0 0 0.47749 0 0 0 0 0.575 0 0 0 0.18 0"/>
<feBlend mode="normal" in2="BackgroundImageFix" result="effect1_dropShadow_2686_122704"/>
<feBlend mode="normal" in="SourceGraphic" in2="effect1_dropShadow_2686_122704" result="shape"/>
</filter>
<filter id="filter1_d_2686_122704" x="31.7085" y="3.06641" width="95.2915" height="103.986" filterUnits="userSpaceOnUse" color-interpolation-filters="sRGB">
<feFlood flood-opacity="0" result="BackgroundImageFix"/>
<feColorMatrix in="SourceAlpha" type="matrix" values="0 0 0 0 0 0 0 0 0 0 0 0 0 0 0 0 0 0 127 0" result="hardAlpha"/>
<feOffset dy="11"/>
<feGaussianBlur stdDeviation="11"/>
<feColorMatrix type="matrix" values="0 0 0 0 0.397708 0 0 0 0 0.47749 0 0 0 0 0.575 0 0 0 0.18 0"/>
<feBlend mode="normal" in2="BackgroundImageFix" result="effect1_dropShadow_2686_122704"/>
<feBlend mode="normal" in="SourceGraphic" in2="effect1_dropShadow_2686_122704" result="shape"/>
</filter>
<filter id="filter2_d_2686_122704" x="23.5146" y="0.800781" width="80.3105" height="95.0547" filterUnits="userSpaceOnUse" color-interpolation-filters="sRGB">
<feFlood flood-opacity="0" result="BackgroundImageFix"/>
<feColorMatrix in="SourceAlpha" type="matrix" values="0 0 0 0 0 0 0 0 0 0 0 0 0 0 0 0 0 0 127 0" result="hardAlpha"/>
<feOffset dy="11"/>
<feGaussianBlur stdDeviation="11"/>
<feColorMatrix type="matrix" values="0 0 0 0 0.397708 0 0 0 0 0.47749 0 0 0 0 0.575 0 0 0 0.18 0"/>
<feBlend mode="normal" in2="BackgroundImageFix" result="effect1_dropShadow_2686_122704"/>
<feBlend mode="normal" in="SourceGraphic" in2="effect1_dropShadow_2686_122704" result="shape"/>
</filter>
</defs>
</svg>
