<svg id="Layer_1" data-name="Layer 1" xmlns="http://www.w3.org/2000/svg" xmlns:xlink="http://www.w3.org/1999/xlink" viewBox="0 0 159 38"><defs><style>.cls-1,.cls-4{font-size:14px;font-family:Gotham-Black, Gotham Black;font-weight:800;}.cls-1,.cls-4,.cls-8{fill:#fff;}.cls-1{letter-spacing:0.02em;}.cls-2{letter-spacing:-0.01em;}.cls-3{letter-spacing:0.01em;}.cls-4{letter-spacing:0.1em;}.cls-5{letter-spacing:0.06em;}.cls-6{letter-spacing:0.07em;}.cls-7{letter-spacing:0.1em;}.cls-9{fill:url(#linear-gradient);}</style><linearGradient id="linear-gradient" x1="23.97" y1="38.43" x2="39.6" y2="19.17" gradientTransform="matrix(1, 0, 0, -1, 0, 37.89)" gradientUnits="userSpaceOnUse"><stop offset="0" stop-color="#fff"/><stop offset="0.39" stop-color="#fff"/><stop offset="1" stop-color="#fff"/></linearGradient></defs><text class="cls-1" transform="translate(54.77 13.76)">PR<tspan class="cls-2" x="20.05" y="0">O</tspan><tspan x="31.54" y="0">J</tspan><tspan class="cls-3" x="39.72" y="0">E</tspan><tspan x="49.27" y="0">CT</tspan></text><text class="cls-4" transform="translate(56.77 30.89)">PI<tspan class="cls-5" x="16.8" y="0">L</tspan><tspan class="cls-6" x="26.26" y="0">O</tspan><tspan class="cls-7" x="38.88" y="0">T</tspan></text><path class="cls-8" d="M22.23,6.36a12.75,12.75,0,0,0-5,2.44,11.75,11.75,0,0,0-3.16,3.81,11.59,11.59,0,0,0-1.31,4.75A11.89,11.89,0,0,0,15,25.2a12.24,12.24,0,0,0,6.81,4.63,12.08,12.08,0,0,0,5.18.24,12,12,0,0,0,4.8-1.95l.42-.27v4.88a.57.57,0,0,1-.07.38.56.56,0,0,1-.31.23,17.66,17.66,0,0,1-5.35,1.38c-.12,0-.26-.06-.34.1h-2.6c0-.16-.18-.09-.28-.1A16.32,16.32,0,0,1,13,29.85,16.05,16.05,0,0,1,8.49,14.68a16.3,16.3,0,0,1,4.78-8.54,16.71,16.71,0,0,1,8.85-4.36.31.31,0,0,1,0,.13A.36.36,0,0,1,22,2c-.54.54-1.07,1.08-1.61,1.59-.14.13-.25.21-.06.39C21,4.76,21.61,5.58,22.23,6.36Z"/><path class="cls-9" d="M22.23,6.36c-.62-.79-1.21-1.59-1.88-2.31-.19-.2-.08-.29.06-.4C21,3.12,21.48,2.58,22,2.06A.44.44,0,0,0,22.1,2a.34.34,0,0,0,0-.14c.47-.2,1-.07,1.45-.28h2.6c0,.12.16.08.24.09a14.6,14.6,0,0,1,3.92.79A16.44,16.44,0,0,1,37.66,7.3a16.27,16.27,0,0,1,4,9.45,2.59,2.59,0,0,0,.16,1.14v.76a3.41,3.41,0,0,1-1-.14c-3.13-.65-6.26-1.29-9.39-2a2.61,2.61,0,0,1-1.4-.47c1.15-.13,2.3,0,3.45-.08,1,0,2,0,3,0,.31,0,.38-.08.32-.4a12.05,12.05,0,0,0-3.54-6.16A12.28,12.28,0,0,0,26.9,6.25,14.08,14.08,0,0,0,22.23,6.36Z"/><path class="cls-8" d="M30.12,16a2.51,2.51,0,0,0,1.4.48c3.13.67,6.26,1.32,9.39,2a3.41,3.41,0,0,0,1,.14v.57c-.07.81-.65.73-1.24.72q-8.25,0-16.52,0c-.35,0-.47-.07-.46-.44,0-1,0-2,0-3,0-.3.09-.4.38-.4,1.1,0,2.21,0,3.31,0A26,26,0,0,1,30.12,16Z"/><path class="cls-8" d="M26.55,12.78a5.34,5.34,0,0,0-5.45,7c.8,3.18,4.13,4.64,7.37,3.34a5.53,5.53,0,0,0,2.13-1.57c.19-.22.31-.28.55,0,.68.74,1.38,1.45,2.09,2.16.18.18.17.27,0,.45a9.69,9.69,0,0,1-14.93-.66,9,9,0,0,1-1.55-6.12,8.87,8.87,0,0,1,5.48-7.61,4.58,4.58,0,0,1,1.81-.54c.18.25.37.51.55.79C25.23,10.93,26,11.8,26.55,12.78Z"/><path class="cls-8" d="M26.55,12.78c-.57-1-1.32-1.85-1.95-2.8-.18-.26-.37-.52-.55-.79A8.89,8.89,0,0,1,27.42,9a9.48,9.48,0,0,1,5.73,2.81c.33.33.38.55,0,.9-.67.68-1.29,1.41-1.92,2.13-.15.17-.23.24-.42,0a5.81,5.81,0,0,0-1.91-1.5A5.92,5.92,0,0,0,26.55,12.78Z"/><rect class="cls-8" x="45.89" y="2.7" width="2.61" height="31.41"/></svg>