<svg width="166" height="141" viewBox="0 0 166 141" fill="none" xmlns="http://www.w3.org/2000/svg">
<path d="M85.0421 112.96C110.845 112.96 131.816 91.9892 131.816 66.1862C131.816 40.3831 110.845 19.4121 85.0421 19.4121C59.1424 19.4121 38.2681 40.2865 38.2681 66.1862C38.2681 91.9892 59.1424 112.96 85.0421 112.96Z" fill="#EAEEF9"/>
<path d="M55.6104 53.4004H112.151C114.269 53.4004 116.174 55.2004 116.174 57.4239V93.1058C116.174 95.2234 114.374 97.1293 112.151 97.1293H55.6104C53.4928 97.1293 51.5869 95.3293 51.5869 93.1058V57.4239C51.5869 55.2004 53.4928 53.4004 55.6104 53.4004Z" fill="url(#paint0_linear_2686_122580)"/>
<path d="M139.451 54.4921C140.9 53.1392 140.997 50.9164 139.644 49.4668C138.291 48.0172 136.068 47.9206 134.619 49.2735C133.169 50.6265 133.072 52.8492 134.425 54.2989C135.682 55.6518 138.001 55.8451 139.451 54.4921Z" fill="#EAEEF9"/>
<path d="M139.644 38.5459C140.224 37.9661 140.321 36.9996 139.741 36.4198C139.161 35.84 138.194 35.7433 137.615 36.3232C137.035 36.903 136.938 37.8694 137.518 38.4493C138.098 39.1257 139.064 39.1257 139.644 38.5459Z" fill="#EAEEF9"/>
<path d="M101.664 16.6087C102.051 16.2222 102.147 15.5457 101.761 15.1591C101.374 14.7726 100.698 14.6759 100.311 15.0625C99.9244 15.4491 99.8278 16.1255 100.214 16.5121C100.601 16.8987 101.277 16.9953 101.664 16.6087Z" fill="#EAEEF9"/>
<g filter="url(#filter0_d_2686_122580)">
<path d="M136.716 34.5527L122.633 59.6465C122.104 60.4936 121.045 60.8112 120.304 60.2818L96.1632 46.1996C95.3161 45.6702 94.9985 44.6114 95.5279 43.8702L114.057 11.8941C114.586 11.0471 115.645 10.7294 116.386 11.2588L133.857 21.4234L136.716 34.5527Z" fill="#F2F6FA"/>
</g>
<path d="M133.857 21.4238L129.833 28.2002C129.304 29.259 129.621 30.3178 130.574 30.9531L136.61 34.4472" fill="#D5DAE6"/>
<path d="M117.234 27.9887C117.657 27.8828 118.081 27.8828 118.398 27.8828C118.822 27.8828 119.245 27.8828 119.669 27.8828C120.092 27.9887 120.622 28.0946 121.045 28.2005C121.575 28.4122 121.998 28.624 122.422 28.8357C123.057 29.1534 123.586 29.5769 124.01 30.1063C124.434 30.5298 124.751 31.0592 124.963 31.6945C125.175 32.2239 125.175 32.8592 125.175 33.3886C125.069 34.0239 124.857 34.6592 124.539 35.1886C124.222 35.718 123.904 36.1415 123.481 36.5651C123.057 36.8827 122.739 37.0945 122.21 37.3062C121.786 37.518 121.363 37.6239 120.939 37.6239L119.775 37.7298C119.457 37.7298 119.139 37.8356 118.716 37.9415C118.398 38.0474 118.187 38.1533 117.975 38.365L116.81 39.8474L114.904 38.7886L115.751 36.8827C115.857 36.5651 116.175 36.2474 116.387 36.0357C116.704 35.8239 117.022 35.718 117.339 35.6121C117.763 35.5063 118.081 35.5063 118.504 35.4004C118.928 35.4004 119.351 35.2945 119.775 35.1886C120.198 35.0827 120.516 34.9769 120.939 34.7651C121.363 34.5533 121.575 34.2357 121.786 33.8122C121.892 33.6004 121.998 33.2828 122.104 32.9651C122.104 32.6475 122.104 32.4357 121.998 32.2239C121.892 31.9063 121.786 31.6945 121.575 31.4828C121.363 31.271 121.151 31.0592 120.834 30.8475C120.516 30.6357 120.092 30.424 119.669 30.3181C119.351 30.2122 119.034 30.2122 118.716 30.2122C118.398 30.2122 118.187 30.2122 117.975 30.2122C117.869 30.2122 117.657 30.2122 117.551 30.1063C117.339 30.0004 117.128 29.6828 117.128 29.471L117.234 27.9887ZM111.834 41.965C111.94 41.7532 112.151 41.5415 112.363 41.3297C112.575 41.2238 112.787 41.0121 112.998 41.0121C113.528 40.9062 114.057 40.9062 114.481 41.2238C114.692 41.3297 114.904 41.5415 115.116 41.7532C115.222 41.965 115.328 42.1768 115.434 42.3885C115.751 43.4473 115.116 44.4003 114.057 44.7179C113.528 44.8238 112.998 44.7179 112.575 44.5062C112.363 44.4003 112.151 44.1885 111.94 43.9767C111.834 43.765 111.622 43.5532 111.622 43.3415C111.516 43.1297 111.516 42.8121 111.622 42.6003C111.622 42.3885 111.728 42.1768 111.834 41.965Z" fill="#CED6E2"/>
<g filter="url(#filter1_d_2686_122580)">
<path d="M46.1871 23.647L62.281 40.4821C62.8104 41.1174 62.8104 41.9644 62.1752 42.4939L45.7636 58.0584C45.1283 58.5878 44.2812 58.5878 43.7518 57.9525L23.2109 36.2469C22.6815 35.6116 22.6815 34.7645 23.3168 34.2351L35.2813 23.0117L46.1871 23.647Z" fill="#F2F6FA"/>
</g>
<path d="M35.1753 22.8008L39.6223 27.4596C40.2576 28.0948 41.3164 28.0948 41.9517 27.4596L46.0811 23.5419" fill="#D5DAE6"/>
<path d="M36.4458 37.305C36.4458 36.9873 36.5517 36.6697 36.6576 36.352C36.7634 36.0344 36.8693 35.7167 36.9752 35.3991C37.0811 35.0814 37.2929 34.7638 37.5046 34.4462C37.7164 34.1285 38.034 33.8109 38.3517 33.4932C38.7752 33.0697 39.1987 32.7521 39.7281 32.5403C40.1516 32.3285 40.681 32.2227 41.1046 32.2227C41.5281 32.2227 42.0575 32.3285 42.481 32.4344C42.9046 32.6462 43.3281 32.9638 43.7516 33.2815C44.0692 33.5991 44.3869 34.0226 44.4928 34.4462C44.5987 34.7638 44.7045 35.1873 44.8104 35.6109C44.8104 35.9285 44.8104 36.352 44.8104 36.6697C44.7045 36.9873 44.7045 37.305 44.5987 37.6226C44.5987 37.9402 44.4928 38.152 44.4928 38.4696C44.4928 38.6814 44.4928 38.8932 44.7045 39.1049L45.5516 40.3755L44.281 41.5402L43.0104 40.3755C42.7987 40.1637 42.5869 39.952 42.481 39.6343C42.3751 39.3167 42.3751 39.1049 42.3751 38.7873C42.3751 38.4696 42.481 38.152 42.481 37.8344C42.5869 37.5167 42.5869 37.1991 42.5869 36.8814C42.5869 36.5638 42.5869 36.2461 42.481 35.9285C42.3751 35.6109 42.1634 35.2932 41.9516 34.9756C41.8457 34.7638 41.634 34.6579 41.4222 34.552C41.2105 34.4462 40.9987 34.4462 40.7869 34.4462C40.5752 34.4462 40.3634 34.552 40.1516 34.6579C39.9399 34.7638 39.7281 34.8697 39.5164 35.0814C39.3046 35.2932 39.0928 35.6109 38.8811 35.8226C38.7752 36.0344 38.6693 36.2461 38.5634 36.5638C38.4575 36.7755 38.4575 36.9873 38.4575 37.0932C38.4575 37.1991 38.3517 37.305 38.2458 37.4108C38.1399 37.6226 37.8223 37.6226 37.6105 37.5167L36.4458 37.305ZM46.1869 44.7166C46.081 44.6108 45.9751 44.399 45.8692 44.1872C45.7633 43.9755 45.7633 43.7637 45.7633 43.5519C45.7633 43.1284 45.9751 42.7049 46.2928 42.3872C46.3986 42.2814 46.6104 42.1755 46.8222 42.0696C47.0339 41.9637 47.2457 41.9637 47.4574 41.9637C48.0927 41.9637 48.728 42.3872 48.9398 43.0225C49.0457 43.2343 49.0457 43.4461 49.0457 43.6578C49.0457 43.8696 48.9398 44.0813 48.9398 44.2931C48.8339 44.5049 48.728 44.6108 48.5163 44.8225C48.4104 44.9284 48.1986 45.1402 47.9868 45.1402C47.5633 45.246 47.1398 45.246 46.8222 45.1402C46.5045 45.0343 46.2928 44.9284 46.1869 44.7166Z" fill="#CED6E2"/>
<g filter="url(#filter2_d_2686_122580)">
<path d="M88.2219 50.1177L81.975 72.4587C81.7632 73.1998 80.9161 73.7292 80.175 73.4116L58.4693 67.0587C57.7282 66.847 57.1988 65.9999 57.5164 65.2588L65.9869 36.4591C66.1987 35.7179 67.0457 35.1885 67.7869 35.5062L83.5632 40.1649L88.2219 50.1177Z" fill="#F2F6FA"/>
</g>
<path d="M83.5654 40.2031L81.5516 46.5168C81.3398 47.3639 81.8692 48.3168 82.7163 48.5285L88.3007 50.1065" fill="#D5DAE6"/>
<path d="M71.5984 48.7403C71.916 48.6345 72.2337 48.5286 72.5513 48.4227C72.869 48.3168 73.1866 48.2109 73.6101 48.2109C74.0337 48.2109 74.3513 48.2109 74.7748 48.2109C75.1984 48.2109 75.6219 48.3168 76.0454 48.4227C76.5748 48.5286 77.1042 48.8462 77.5277 49.1639C77.9513 49.4815 78.2689 49.7992 78.5866 50.2227C78.7983 50.6462 79.0101 51.0697 79.116 51.4933C79.2218 52.0227 79.116 52.5521 79.0101 52.9756C78.9042 53.3991 78.6924 53.8226 78.3748 54.2462C78.163 54.5638 77.8454 54.8815 77.5277 55.0932C77.2101 55.305 76.8925 55.5167 76.5748 55.6226L75.6219 55.9403C75.4101 56.0461 75.0925 56.152 74.8807 56.2579C74.669 56.3638 74.4572 56.5756 74.4572 56.7873L73.8219 58.1638L72.1278 57.4226L72.4454 55.7285C72.4454 55.4109 72.6572 55.1991 72.869 54.9873C73.0807 54.7756 73.2925 54.5638 73.6101 54.4579C73.9278 54.352 74.2454 54.2462 74.4572 54.1403C74.7748 54.0344 75.0925 53.9285 75.4101 53.7168C75.7278 53.6109 75.9395 53.3991 76.2572 53.1874C76.4689 52.9756 76.6807 52.6579 76.7866 52.2344C76.7866 52.1285 76.7866 51.9168 76.7866 51.705C76.7866 51.4933 76.6807 51.2815 76.5748 51.0697C76.4689 50.858 76.2572 50.7521 76.0454 50.5403C75.8336 50.4344 75.6219 50.3286 75.3042 50.2227C74.9866 50.1168 74.6689 50.1168 74.2454 50.1168C74.0337 50.1168 73.716 50.1168 73.5043 50.2227C73.2925 50.2227 73.0807 50.3286 72.9749 50.3286C72.869 50.3286 72.7631 50.4344 72.5513 50.3286C72.3396 50.3286 72.1278 50.1168 72.1278 49.905L71.5984 48.7403ZM70.0102 60.9167C70.1161 60.7049 70.1161 60.4932 70.3278 60.3873C70.4337 60.1755 70.6455 60.0696 70.7513 59.9637C71.1749 59.752 71.5984 59.752 71.916 59.8579C72.1278 59.9637 72.3396 60.0696 72.4454 60.1755C72.5513 60.2814 72.7631 60.4932 72.869 60.599C73.2925 61.3402 72.9749 62.2931 72.2337 62.6108C71.8102 62.8225 71.3866 62.8225 71.069 62.7167C70.8572 62.6108 70.6455 62.6108 70.5396 62.399C70.3278 62.2931 70.2219 62.0814 70.1161 61.9755C70.0102 61.7637 70.0102 61.6578 69.9043 61.4461C70.0102 61.3402 70.0102 61.1284 70.0102 60.9167Z" fill="#CED6E2"/>
<g filter="url(#filter3_d_2686_122580)">
<path d="M139.257 88.34L118.716 99.4575C118.08 99.7752 117.128 99.5634 116.81 98.8222L106.539 78.8107C106.222 78.1754 106.434 77.2225 107.175 76.9048L133.857 62.8226C134.492 62.505 135.445 62.7167 135.763 63.4579L143.174 77.9636L139.257 88.34Z" fill="#F2F6FA"/>
</g>
<path d="M143.068 78.1758L137.351 81.1405C136.609 81.564 136.292 82.6228 136.609 83.364L139.151 88.4463" fill="#D5DAE6"/>
<path d="M128.88 75.4219C129.198 75.5278 129.41 75.7395 129.727 75.8454C130.045 75.9513 130.257 76.163 130.574 76.4807C130.892 76.7983 131.104 77.0101 131.316 77.3277C131.633 77.6454 131.845 77.963 132.057 78.3866C132.374 78.8101 132.48 79.4454 132.48 79.8689C132.586 80.3983 132.48 80.8218 132.48 81.3512C132.374 81.7747 132.163 82.1983 131.951 82.6218C131.633 83.0453 131.21 83.363 130.786 83.5747C130.469 83.7865 129.939 83.8924 129.516 83.9982C129.198 84.1041 128.669 84.1041 128.351 83.9982C128.033 83.8924 127.61 83.8924 127.292 83.6806L126.445 83.2571C126.233 83.1512 125.916 83.0453 125.704 82.9394C125.492 82.8336 125.174 82.8336 125.069 83.0453L123.692 83.5747L122.951 81.9865L124.327 81.0336C124.539 80.8218 124.857 80.8218 125.174 80.8218C125.492 80.8218 125.704 80.8218 126.022 80.9277C126.339 81.0336 126.551 81.2453 126.763 81.3512C127.08 81.4571 127.292 81.6689 127.716 81.7747C128.033 81.8806 128.245 81.8806 128.669 81.9865C128.986 81.9865 129.304 81.8806 129.727 81.6689C130.045 81.4571 130.469 81.1395 130.469 80.6101C130.574 80.3983 130.469 80.1865 130.469 79.8689C130.363 79.6571 130.363 79.4454 130.151 79.1277C130.045 78.8101 129.833 78.5983 129.621 78.2807C129.516 78.1748 129.304 77.963 129.092 77.8571C128.986 77.7513 128.774 77.6454 128.669 77.5395C128.563 77.4336 128.457 77.4336 128.351 77.2219C128.245 77.116 128.245 76.7983 128.351 76.6924L128.88 75.4219ZM119.033 82.7277C119.245 82.6218 119.351 82.5159 119.669 82.6218C119.88 82.5159 120.092 82.6218 120.198 82.6218C120.622 82.7277 120.939 83.0453 121.045 83.363C121.151 83.5747 121.151 83.7865 121.151 83.9982C121.151 84.1041 121.151 84.4218 121.151 84.5277C121.045 84.8453 120.727 85.2688 120.41 85.3747C120.198 85.4806 119.986 85.4806 119.775 85.4806C119.669 85.4806 119.351 85.4806 119.245 85.4806C118.822 85.3747 118.504 85.0571 118.398 84.7394C118.292 84.5277 118.292 84.3159 118.292 84.1041C118.186 83.8924 118.292 83.6806 118.292 83.5747C118.398 83.363 118.504 83.2571 118.504 83.0453C118.61 82.9394 118.927 82.9394 119.033 82.7277Z" fill="#CED6E2"/>
<path d="M117.233 76.3749V93.9512C117.233 96.1747 115.327 98.0806 113.104 98.0806H54.9751C52.7516 98.0806 50.8457 96.1747 50.8457 93.9512V74.8926" stroke="#1676EE" stroke-width="3" stroke-linecap="round" stroke-linejoin="round"/>
<path d="M115.01 65.0469H95.1042C93.1983 65.0469 91.2925 65.6822 89.8101 66.9527L84.5161 71.188C83.0337 72.3527 81.1279 73.0938 79.222 73.0938H56.5634C54.3399 73.0938 52.4341 74.8938 52.4341 77.2232C52.4341 77.435 52.4341 77.6467 52.54 77.8585L56.6693 99.5641C56.987 101.576 58.787 103.164 60.7987 103.164H109.186C111.304 103.164 112.998 101.682 113.316 99.67L119.139 69.8115C119.457 67.588 117.975 65.4704 115.645 65.1528C115.433 65.0469 115.222 65.0469 115.01 65.0469Z" fill="white"/>
<g filter="url(#filter4_d_2686_122580)">
<path d="M120.516 61.1289H96.7984C94.5749 61.1289 92.2455 61.976 90.5514 63.3524L84.1985 68.5406C82.3986 70.0229 80.175 70.7641 77.9515 70.7641H50.7401C48.0931 70.7641 45.7637 72.8817 45.7637 75.7405C45.7637 75.9523 45.7637 76.2699 45.8696 76.4817L50.846 102.846C51.2695 105.281 53.2812 107.187 55.8224 107.187H113.528C115.963 107.187 118.081 105.387 118.504 102.952L125.386 66.8465C125.81 64.1995 124.01 61.5524 121.257 61.1289C121.045 61.1289 120.728 61.1289 120.516 61.1289Z" fill="url(#paint1_linear_2686_122580)"/>
</g>
<path d="M74.775 88.8694C76.1515 88.8694 77.3162 87.7047 77.3162 86.3283C77.3162 84.9518 76.1515 83.7871 74.775 83.7871C73.3986 83.7871 72.2339 84.9518 72.2339 86.3283C72.2339 87.7047 73.3986 88.8694 74.775 88.8694Z" fill="#989FB0"/>
<path d="M94.5748 88.4456C95.9513 88.4456 97.116 87.2809 97.116 85.9044C97.116 84.528 95.9513 83.3633 94.5748 83.3633C93.1984 83.3633 92.0337 84.528 92.0337 85.9044C92.0337 87.2809 93.1984 88.4456 94.5748 88.4456Z" fill="#989FB0"/>
<path d="M90.0219 92.6813H88.6454C87.4808 90.352 84.622 89.399 82.3985 90.6696C81.4455 91.0931 80.7044 91.9402 80.3867 92.6813H79.0103C80.1749 89.6108 83.669 88.0226 86.6337 89.1873C88.2219 89.8225 89.3866 91.0931 90.0219 92.6813Z" fill="#989FB0"/>
<path d="M130.151 115.764C128.986 115.764 129.41 115.87 120.41 106.87C111.728 113.329 99.6572 107.082 99.6572 96.4937C99.6572 89.3996 105.481 83.5762 112.575 83.5762C122.845 83.5762 129.198 95.1172 123.163 103.905L131.527 112.27C132.904 113.541 132.057 115.764 130.151 115.764ZM112.681 87.7055C107.81 87.7055 103.787 91.6231 103.787 96.5996C103.787 101.576 107.704 105.494 112.681 105.494C113.21 105.494 113.739 105.494 114.269 105.388C114.798 105.282 115.328 105.176 115.751 104.964C116.281 104.752 116.704 104.541 117.128 104.329C117.657 104.011 118.081 103.694 118.504 103.27C118.822 102.952 119.245 102.529 119.563 102.211C119.881 101.788 120.198 101.364 120.41 100.941C120.622 100.517 120.833 99.9878 121.045 99.4583C121.257 98.9289 121.363 98.3995 121.363 97.8701C121.363 97.4466 121.469 97.129 121.469 96.7054C121.575 91.6231 117.551 87.7055 112.681 87.7055Z" fill="#989FB0"/>
<path d="M68.5278 81.9866L74.2454 78.916" stroke="#989FB0" stroke-width="1.5" stroke-miterlimit="10"/>
<path d="M99.5511 80.5046L93.8335 77.3281" stroke="#989FB0" stroke-width="1.5" stroke-miterlimit="10"/>
<defs>
<filter id="filter0_d_2686_122580" x="73.269" y="0" width="85.4468" height="93.541" filterUnits="userSpaceOnUse" color-interpolation-filters="sRGB">
<feFlood flood-opacity="0" result="BackgroundImageFix"/>
<feColorMatrix in="SourceAlpha" type="matrix" values="0 0 0 0 0 0 0 0 0 0 0 0 0 0 0 0 0 0 127 0" result="hardAlpha"/>
<feOffset dy="11"/>
<feGaussianBlur stdDeviation="11"/>
<feColorMatrix type="matrix" values="0 0 0 0 0.397708 0 0 0 0 0.47749 0 0 0 0 0.575 0 0 0 0.27 0"/>
<feBlend mode="normal" in2="BackgroundImageFix" result="effect1_dropShadow_2686_122580"/>
<feBlend mode="normal" in="SourceGraphic" in2="effect1_dropShadow_2686_122580" result="shape"/>
</filter>
<filter id="filter1_d_2686_122580" x="0.826172" y="12.0117" width="83.8394" height="79.4316" filterUnits="userSpaceOnUse" color-interpolation-filters="sRGB">
<feFlood flood-opacity="0" result="BackgroundImageFix"/>
<feColorMatrix in="SourceAlpha" type="matrix" values="0 0 0 0 0 0 0 0 0 0 0 0 0 0 0 0 0 0 127 0" result="hardAlpha"/>
<feOffset dy="11"/>
<feGaussianBlur stdDeviation="11"/>
<feColorMatrix type="matrix" values="0 0 0 0 0.397708 0 0 0 0 0.47749 0 0 0 0 0.575 0 0 0 0.27 0"/>
<feBlend mode="normal" in2="BackgroundImageFix" result="effect1_dropShadow_2686_122580"/>
<feBlend mode="normal" in="SourceGraphic" in2="effect1_dropShadow_2686_122580" result="shape"/>
</filter>
<filter id="filter2_d_2686_122580" x="35.4224" y="24.4121" width="74.7998" height="82.0938" filterUnits="userSpaceOnUse" color-interpolation-filters="sRGB">
<feFlood flood-opacity="0" result="BackgroundImageFix"/>
<feColorMatrix in="SourceAlpha" type="matrix" values="0 0 0 0 0 0 0 0 0 0 0 0 0 0 0 0 0 0 127 0" result="hardAlpha"/>
<feOffset dy="11"/>
<feGaussianBlur stdDeviation="11"/>
<feColorMatrix type="matrix" values="0 0 0 0 0.397708 0 0 0 0 0.47749 0 0 0 0 0.575 0 0 0 0.27 0"/>
<feBlend mode="normal" in2="BackgroundImageFix" result="effect1_dropShadow_2686_122580"/>
<feBlend mode="normal" in="SourceGraphic" in2="effect1_dropShadow_2686_122580" result="shape"/>
</filter>
<filter id="filter3_d_2686_122580" x="84.3965" y="51.6797" width="80.7778" height="80.9199" filterUnits="userSpaceOnUse" color-interpolation-filters="sRGB">
<feFlood flood-opacity="0" result="BackgroundImageFix"/>
<feColorMatrix in="SourceAlpha" type="matrix" values="0 0 0 0 0 0 0 0 0 0 0 0 0 0 0 0 0 0 127 0" result="hardAlpha"/>
<feOffset dy="11"/>
<feGaussianBlur stdDeviation="11"/>
<feColorMatrix type="matrix" values="0 0 0 0 0.397708 0 0 0 0 0.47749 0 0 0 0 0.575 0 0 0 0.27 0"/>
<feBlend mode="normal" in2="BackgroundImageFix" result="effect1_dropShadow_2686_122580"/>
<feBlend mode="normal" in="SourceGraphic" in2="effect1_dropShadow_2686_122580" result="shape"/>
</filter>
<filter id="filter4_d_2686_122580" x="23.7637" y="50.1289" width="123.684" height="90.0586" filterUnits="userSpaceOnUse" color-interpolation-filters="sRGB">
<feFlood flood-opacity="0" result="BackgroundImageFix"/>
<feColorMatrix in="SourceAlpha" type="matrix" values="0 0 0 0 0 0 0 0 0 0 0 0 0 0 0 0 0 0 127 0" result="hardAlpha"/>
<feOffset dy="11"/>
<feGaussianBlur stdDeviation="11"/>
<feColorMatrix type="matrix" values="0 0 0 0 0.397708 0 0 0 0 0.47749 0 0 0 0 0.575 0 0 0 0.27 0"/>
<feBlend mode="normal" in2="BackgroundImageFix" result="effect1_dropShadow_2686_122580"/>
<feBlend mode="normal" in="SourceGraphic" in2="effect1_dropShadow_2686_122580" result="shape"/>
</filter>
<linearGradient id="paint0_linear_2686_122580" x1="83.8807" y1="56.6152" x2="83.8807" y2="73.145" gradientUnits="userSpaceOnUse">
<stop stop-color="#B0BACC"/>
<stop offset="1" stop-color="#969EAE"/>
</linearGradient>
<linearGradient id="paint1_linear_2686_122580" x1="85.5798" y1="60.0635" x2="85.5798" y2="107.684" gradientUnits="userSpaceOnUse">
<stop stop-color="#FDFEFF"/>
<stop offset="0.9964" stop-color="#ECF0F5"/>
</linearGradient>
</defs>
</svg>
